<svg class="main-svg" xmlns="http://www.w3.org/2000/svg" xmlns:xlink="http://www.w3.org/1999/xlink" width="900" height="500" style="" viewBox="0 0 900 500"><rect x="0" y="0" width="900" height="500" style="fill: rgb(255, 255, 255); fill-opacity: 1;"/><defs id="defs-d19b33"><g class="clips"><clipPath id="clipd19b33xyplot" class="plotclip"><rect width="643" height="219"/></clipPath><clipPath class="axesclip" id="clipd19b33x"><rect x="80" y="0" width="643" height="500"/></clipPath><clipPath class="axesclip" id="clipd19b33y"><rect x="0" y="100" width="900" height="219"/></clipPath><clipPath class="axesclip" id="clipd19b33xy"><rect x="80" y="100" width="643" height="219"/></clipPath></g><g class="gradients"/><g class="patterns"/></defs><g class="bglayer"/><g class="layer-below"><g class="imagelayer"/><g class="shapelayer"/></g><g class="cartesianlayer"><g class="subplot xy"><g class="layer-subplot"><g class="shapelayer"/><g class="imagelayer"/></g><g class="minor-gridlayer"><g class="x"/><g class="y"/></g><g class="gridlayer"><g class="x"/><g class="y"/></g><g class="zerolinelayer"/><path class="xlines-below"/><path class="ylines-below"/><g class="overlines-below"/><g class="xaxislayer-below"/><g class="yaxislayer-below"/><g class="overaxes-below"/><g class="plot" transform="translate(80,100)" clip-path="url(#clipd19b33xyplot)"><g class="scatterlayer mlayer"><g class="trace scatter tracebae349" style="stroke-miterlimit: 2; opacity: 1;"><g class="fills"/><g class="errorbars"/><g class="lines"><path class="js-line" d="M35.9,194.71L99.37,196.15L162.83,196.01L289.77,195.23L353.23,193.23L416.7,190.88L480.17,187.76L543.63,177.42L607.1,154.27" style="vector-effect: none; fill: none; stroke: rgb(218, 165, 27); stroke-opacity: 1; stroke-width: 2px; opacity: 1;"/></g><g class="points"><path class="point" transform="translate(35.9,194.71)" d="M3.9,0L0,3.9L-3.9,0L0,-3.9Z" style="opacity: 1; stroke-width: 0px; fill: rgb(218, 165, 27); fill-opacity: 1;"/><path class="point" transform="translate(99.37,196.15)" d="M3.9,0L0,3.9L-3.9,0L0,-3.9Z" style="opacity: 1; stroke-width: 0px; fill: rgb(218, 165, 27); fill-opacity: 1;"/><path class="point" transform="translate(162.83,196.01)" d="M3.9,0L0,3.9L-3.9,0L0,-3.9Z" style="opacity: 1; stroke-width: 0px; fill: rgb(218, 165, 27); fill-opacity: 1;"/><path class="point" transform="translate(226.3,195.97)" d="M3.9,0L0,3.9L-3.9,0L0,-3.9Z" style="opacity: 1; stroke-width: 0px; fill: rgb(218, 165, 27); fill-opacity: 1;"/><path class="point" transform="translate(289.77,195.23)" d="M3.9,0L0,3.9L-3.9,0L0,-3.9Z" style="opacity: 1; stroke-width: 0px; fill: rgb(218, 165, 27); fill-opacity: 1;"/><path class="point" transform="translate(353.23,193.23)" d="M3.9,0L0,3.9L-3.9,0L0,-3.9Z" style="opacity: 1; stroke-width: 0px; fill: rgb(218, 165, 27); fill-opacity: 1;"/><path class="point" transform="translate(416.7,190.88)" d="M3.9,0L0,3.9L-3.9,0L0,-3.9Z" style="opacity: 1; stroke-width: 0px; fill: rgb(218, 165, 27); fill-opacity: 1;"/><path class="point" transform="translate(480.17,187.76)" d="M3.9,0L0,3.9L-3.9,0L0,-3.9Z" style="opacity: 1; stroke-width: 0px; fill: rgb(218, 165, 27); fill-opacity: 1;"/><path class="point" transform="translate(543.63,177.42)" d="M3.9,0L0,3.9L-3.9,0L0,-3.9Z" style="opacity: 1; stroke-width: 0px; fill: rgb(218, 165, 27); fill-opacity: 1;"/><path class="point" transform="translate(607.1,154.27)" d="M3.9,0L0,3.9L-3.9,0L0,-3.9Z" style="opacity: 1; stroke-width: 0px; fill: rgb(218, 165, 27); fill-opacity: 1;"/></g><g class="text"/></g><g class="trace scatter tracea51732" style="stroke-miterlimit: 2; opacity: 1;"><g class="fills"/><g class="errorbars"/><g class="lines"><path class="js-line" d="M35.9,203.55L99.37,204.3L162.83,203.89L226.3,203.36L289.77,202.02L353.23,199.14L416.7,193.03L480.17,180.1L543.63,149.16L607.1,14.7" style="vector-effect: none; fill: none; stroke: rgb(204, 97, 176); stroke-opacity: 1; stroke-width: 2px; opacity: 1;"/></g><g class="points"><path class="point" transform="translate(35.9,203.55)" d="M3.9,0L0,3.9L-3.9,0L0,-3.9Z" style="opacity: 1; stroke-width: 0px; fill: rgb(204, 97, 176); fill-opacity: 1;"/><path class="point" transform="translate(99.37,204.3)" d="M3.9,0L0,3.9L-3.9,0L0,-3.9Z" style="opacity: 1; stroke-width: 0px; fill: rgb(204, 97, 176); fill-opacity: 1;"/><path class="point" transform="translate(162.83,203.89)" d="M3.9,0L0,3.9L-3.9,0L0,-3.9Z" style="opacity: 1; stroke-width: 0px; fill: rgb(204, 97, 176); fill-opacity: 1;"/><path class="point" transform="translate(226.3,203.36)" d="M3.9,0L0,3.9L-3.9,0L0,-3.9Z" style="opacity: 1; stroke-width: 0px; fill: rgb(204, 97, 176); fill-opacity: 1;"/><path class="point" transform="translate(289.77,202.02)" d="M3.9,0L0,3.9L-3.9,0L0,-3.9Z" style="opacity: 1; stroke-width: 0px; fill: rgb(204, 97, 176); fill-opacity: 1;"/><path class="point" transform="translate(353.23,199.14)" d="M3.9,0L0,3.9L-3.9,0L0,-3.9Z" style="opacity: 1; stroke-width: 0px; fill: rgb(204, 97, 176); fill-opacity: 1;"/><path class="point" transform="translate(416.7,193.03)" d="M3.9,0L0,3.9L-3.9,0L0,-3.9Z" style="opacity: 1; stroke-width: 0px; fill: rgb(204, 97, 176); fill-opacity: 1;"/><path class="point" transform="translate(480.17,180.1)" d="M3.9,0L0,3.9L-3.9,0L0,-3.9Z" style="opacity: 1; stroke-width: 0px; fill: rgb(204, 97, 176); fill-opacity: 1;"/><path class="point" transform="translate(543.63,149.16)" d="M3.9,0L0,3.9L-3.9,0L0,-3.9Z" style="opacity: 1; stroke-width: 0px; fill: rgb(204, 97, 176); fill-opacity: 1;"/><path class="point" transform="translate(607.1,14.7)" d="M3.9,0L0,3.9L-3.9,0L0,-3.9Z" style="opacity: 1; stroke-width: 0px; fill: rgb(204, 97, 176); fill-opacity: 1;"/></g><g class="text"/></g></g></g><g class="overplot"/><path class="xlines-above crisp" d="M79,319.5H723" style="fill: none; stroke-width: 1px; stroke: rgb(36, 36, 36); stroke-opacity: 1;"/><path class="ylines-above crisp" d="M79.5,100V319" style="fill: none; stroke-width: 1px; stroke: rgb(36, 36, 36); stroke-opacity: 1;"/><g class="overlines-above"/><g class="xaxislayer-above"><path class="xtick ticks crisp" d="M0,320v5" transform="translate(115.9,0)" style="stroke: rgb(68, 68, 68); stroke-opacity: 1; stroke-width: 1px;"/><path class="xtick ticks crisp" d="M0,320v5" transform="translate(179.37,0)" style="stroke: rgb(68, 68, 68); stroke-opacity: 1; stroke-width: 1px;"/><path class="xtick ticks crisp" d="M0,320v5" transform="translate(242.83,0)" style="stroke: rgb(68, 68, 68); stroke-opacity: 1; stroke-width: 1px;"/><path class="xtick ticks crisp" d="M0,320v5" transform="translate(306.3,0)" style="stroke: rgb(68, 68, 68); stroke-opacity: 1; stroke-width: 1px;"/><path class="xtick ticks crisp" d="M0,320v5" transform="translate(369.77,0)" style="stroke: rgb(68, 68, 68); stroke-opacity: 1; stroke-width: 1px;"/><path class="xtick ticks crisp" d="M0,320v5" transform="translate(433.23,0)" style="stroke: rgb(68, 68, 68); stroke-opacity: 1; stroke-width: 1px;"/><path class="xtick ticks crisp" d="M0,320v5" transform="translate(496.7,0)" style="stroke: rgb(68, 68, 68); stroke-opacity: 1; stroke-width: 1px;"/><path class="xtick ticks crisp" d="M0,320v5" transform="translate(560.1700000000001,0)" style="stroke: rgb(68, 68, 68); stroke-opacity: 1; stroke-width: 1px;"/><path class="xtick ticks crisp" d="M0,320v5" transform="translate(623.63,0)" style="stroke: rgb(68, 68, 68); stroke-opacity: 1; stroke-width: 1px;"/><path class="xtick ticks crisp" d="M0,320v5" transform="translate(687.1,0)" style="stroke: rgb(68, 68, 68); stroke-opacity: 1; stroke-width: 1px;"/><g class="xtick"><text text-anchor="start" x="0" y="344.2" transform="translate(115.9,0) rotate(30,0,336.2)" style="font-family: 'Open Sans', verdana, arial, sans-serif; font-size: 16px; fill: rgb(36, 36, 36); fill-opacity: 1; white-space: pre; opacity: 1;">input.sqlite (4 MB)</text></g><g class="xtick"><text text-anchor="start" x="0" y="344.2" transform="translate(179.37,0) rotate(30,0,336.2)" style="font-family: 'Open Sans', verdana, arial, sans-serif; font-size: 16px; fill: rgb(36, 36, 36); fill-opacity: 1; white-space: pre; opacity: 1;">input-x2.sqlite (8 MB)</text></g><g class="xtick"><text text-anchor="start" x="0" y="344.2" transform="translate(242.83,0) rotate(30,0,336.2)" style="font-family: 'Open Sans', verdana, arial, sans-serif; font-size: 16px; fill: rgb(36, 36, 36); fill-opacity: 1; white-space: pre; opacity: 1;">input-x4.sqlite (15 MB)</text></g><g class="xtick"><text text-anchor="start" x="0" y="344.2" transform="translate(306.3,0) rotate(30,0,336.2)" style="font-family: 'Open Sans', verdana, arial, sans-serif; font-size: 16px; fill: rgb(36, 36, 36); fill-opacity: 1; white-space: pre; opacity: 1;">input-x8.sqlite (30 MB)</text></g><g class="xtick"><text text-anchor="start" x="0" y="344.2" transform="translate(369.77,0) rotate(30,0,336.2)" style="font-family: 'Open Sans', verdana, arial, sans-serif; font-size: 16px; fill: rgb(36, 36, 36); fill-opacity: 1; white-space: pre; opacity: 1;">input-x16.sqlite (60 MB)</text></g><g class="xtick"><text text-anchor="start" x="0" y="344.2" transform="translate(433.23,0) rotate(30,0,336.2)" style="font-family: 'Open Sans', verdana, arial, sans-serif; font-size: 16px; fill: rgb(36, 36, 36); fill-opacity: 1; white-space: pre; opacity: 1;">input-x32.sqlite (119 MB)</text></g><g class="xtick"><text text-anchor="start" x="0" y="344.2" transform="translate(496.7,0) rotate(30,0,336.2)" style="font-family: 'Open Sans', verdana, arial, sans-serif; font-size: 16px; fill: rgb(36, 36, 36); fill-opacity: 1; white-space: pre; opacity: 1;">input-x64.sqlite (239 MB)</text></g><g class="xtick"><text text-anchor="start" x="0" y="344.2" transform="translate(560.1700000000001,0) rotate(30,0,336.2)" style="font-family: 'Open Sans', verdana, arial, sans-serif; font-size: 16px; fill: rgb(36, 36, 36); fill-opacity: 1; white-space: pre; opacity: 1;">input-x128.sqlite (477 MB)</text></g><g class="xtick"><text text-anchor="start" x="0" y="344.2" transform="translate(623.63,0) rotate(30,0,336.2)" style="font-family: 'Open Sans', verdana, arial, sans-serif; font-size: 16px; fill: rgb(36, 36, 36); fill-opacity: 1; white-space: pre; opacity: 1;">input-x256.sqlite (955 MB)</text></g><g class="xtick"><text text-anchor="start" x="0" y="344.2" transform="translate(687.1,0) rotate(30,0,336.2)" style="font-family: 'Open Sans', verdana, arial, sans-serif; font-size: 16px; fill: rgb(36, 36, 36); fill-opacity: 1; white-space: pre; opacity: 1;">input-x512.sqlite (1909 MB)</text></g></g><g class="yaxislayer-above"><path class="ytick ticks crisp" d="M79,0h-5" transform="translate(0,306.07)" style="stroke: rgb(68, 68, 68); stroke-opacity: 1; stroke-width: 1px;"/><path class="ytick ticks crisp" d="M79,0h-5" transform="translate(0,234.49)" style="stroke: rgb(68, 68, 68); stroke-opacity: 1; stroke-width: 1px;"/><path class="ytick ticks crisp" d="M79,0h-5" transform="translate(0,162.92000000000002)" style="stroke: rgb(68, 68, 68); stroke-opacity: 1; stroke-width: 1px;"/><g class="ytick"><text text-anchor="end" x="70.8" y="5.6" transform="translate(0,306.07)" style="font-family: 'Open Sans', verdana, arial, sans-serif; font-size: 16px; fill: rgb(36, 36, 36); fill-opacity: 1; white-space: pre; opacity: 1;">0</text></g><g class="ytick"><text text-anchor="end" x="70.8" y="5.6" style="font-family: 'Open Sans', verdana, arial, sans-serif; font-size: 16px; fill: rgb(36, 36, 36); fill-opacity: 1; white-space: pre; opacity: 1;" transform="translate(0,234.49)">50</text></g><g class="ytick"><text text-anchor="end" x="70.8" y="5.6" style="font-family: 'Open Sans', verdana, arial, sans-serif; font-size: 16px; fill: rgb(36, 36, 36); fill-opacity: 1; white-space: pre; opacity: 1;" transform="translate(0,162.92000000000002)">100</text></g></g><g class="overaxes-above"/></g></g><g class="polarlayer"/><g class="smithlayer"/><g class="ternarylayer"/><g class="geolayer"/><g class="funnelarealayer"/><g class="pielayer"/><g class="iciclelayer"/><g class="treemaplayer"/><g class="sunburstlayer"/><g class="glimages"/><defs id="topdefs-d19b33"><g class="clips"/><clipPath id="legendd19b33"><rect width="145" height="58" x="0" y="0"/></clipPath></defs><g class="layer-above"><g class="imagelayer"/><g class="shapelayer"/></g><g class="infolayer"><g class="legend" pointer-events="all" transform="translate(86.43,104.38000000000001)"><rect class="bg" shape-rendering="crispEdges" width="145" height="58" x="0" y="0" style="stroke: rgb(68, 68, 68); stroke-opacity: 1; fill: rgb(255, 255, 255); fill-opacity: 0.8; stroke-width: 0px;"/><g class="scrollbox" transform="" clip-path="url(#legendd19b33)"><g class="groups" transform=""><g class="traces" transform="translate(0,16.9)" style="opacity: 1;"><text class="legendtext" text-anchor="start" x="40" y="6.24" style="font-family: 'Open Sans', verdana, arial, sans-serif; font-size: 16px; fill: rgb(36, 36, 36); fill-opacity: 1; white-space: pre;">CytoTable</text><g class="layers" style="opacity: 1;"><g class="legendfill"/><g class="legendlines"><path class="js-line" d="M5,0h30" style="fill: none; stroke: rgb(218, 165, 27); stroke-opacity: 1; stroke-width: 2px;"/></g><g class="legendsymbols"><g class="legendpoints"><path class="scatterpts" transform="translate(20,0)" d="M3.9,0L0,3.9L-3.9,0L0,-3.9Z" style="opacity: 1; stroke-width: 0px; fill: rgb(218, 165, 27); fill-opacity: 1;"/></g></g></g><rect class="legendtoggle" x="0" y="-11.9" width="139.4375" height="23.8" style="fill: rgb(0, 0, 0); fill-opacity: 0;"/></g></g><g class="groups" transform=""><g class="traces" transform="translate(0,40.7)" style="opacity: 1;"><text class="legendtext" text-anchor="start" x="40" y="6.24" style="font-family: 'Open Sans', verdana, arial, sans-serif; font-size: 16px; fill: rgb(36, 36, 36); fill-opacity: 1; white-space: pre;">Pycytominer</text><g class="layers" style="opacity: 1;"><g class="legendfill"/><g class="legendlines"><path class="js-line" d="M5,0h30" style="fill: none; stroke: rgb(204, 97, 176); stroke-opacity: 1; stroke-width: 2px;"/></g><g class="legendsymbols"><g class="legendpoints"><path class="scatterpts" transform="translate(20,0)" d="M3.9,0L0,3.9L-3.9,0L0,-3.9Z" style="opacity: 1; stroke-width: 0px; fill: rgb(204, 97, 176); fill-opacity: 1;"/></g></g></g><rect class="legendtoggle" x="0" y="-11.9" width="139.4375" height="23.8" style="fill: rgb(0, 0, 0); fill-opacity: 0;"/></g></g></g><rect class="scrollbar" rx="20" ry="3" width="0" height="0" x="0" y="0" style="fill: rgb(128, 139, 164); fill-opacity: 1;"/></g><g class="g-gtitle"><text class="gtitle" x="45" y="50" text-anchor="start" dy="0em" style="font-family: 'Open Sans', verdana, arial, sans-serif; font-size: 22px; fill: rgb(36, 36, 36); opacity: 1; font-weight: normal; white-space: pre;">CytoTable and Pycytominer SQLite Processing Time Comparison</text></g><g class="g-xtitle"><text class="xtitle" x="401.5" y="487.63203125" text-anchor="middle" style="font-family: 'Open Sans', verdana, arial, sans-serif; font-size: 19px; fill: rgb(36, 36, 36); opacity: 1; font-weight: normal; white-space: pre;">Input File</text></g><g class="g-ytitle" transform="translate(6.5185546875,0)"><text class="ytitle" transform="rotate(-90,12.481250000000003,209.5)" x="12.481250000000003" y="209.5" text-anchor="middle" style="font-family: 'Open Sans', verdana, arial, sans-serif; font-size: 19px; fill: rgb(36, 36, 36); opacity: 1; font-weight: normal; white-space: pre;">Seconds</text></g></g></svg>